<svg width="84" height="88" viewBox="0 0 84 88" fill="none" xmlns="http://www.w3.org/2000/svg">
<mask id="path-1-outside-1_14_7" maskUnits="userSpaceOnUse" x="3" y="11" width="78" height="72" fill="black">
<rect fill="white" x="3" y="11" width="78" height="72"/>
<path d="M26.208 12.304H27.36C28.96 12.304 30.464 12.496 31.872 12.88C33.344 13.264 34.592 13.904 35.616 14.8C36.704 15.696 37.536 16.944 38.112 18.544C38.752 20.08 39.072 22.032 39.072 24.4V71.632C39.072 73.168 38.752 74.576 38.112 75.856C37.536 77.136 36.704 78.224 35.616 79.12C34.592 80.016 33.344 80.72 31.872 81.232C30.464 81.744 28.928 82 27.264 82H26.208V12.304ZM4.32 43.792C4.32 40.72 5.344 38.192 7.392 36.208C9.44 34.224 12.384 33.232 16.224 33.232C18.656 33.232 20.736 33.904 22.464 35.248C24.192 36.592 25.056 38.288 25.056 40.336C25.056 40.848 25.024 41.36 24.96 41.872C24.896 42.32 24.736 42.8 24.48 43.312C23.584 42.608 22.56 42.256 21.408 42.256H21.024C19.552 42.384 18.528 42.928 17.952 43.888C17.44 44.848 17.184 46.032 17.184 47.44V66.736C17.184 68.848 17.568 70.416 18.336 71.44C19.104 72.464 20.128 72.976 21.408 72.976C22.56 72.976 23.552 72.624 24.384 71.92C24.832 72.816 25.056 73.808 25.056 74.896C25.056 76.944 24.192 78.64 22.464 79.984C20.736 81.328 18.656 82 16.224 82C12.384 82 9.44 81.008 7.392 79.024C5.344 76.976 4.32 73.744 4.32 69.328V43.792ZM57.7102 82H56.6543C54.9902 82 53.4222 81.744 51.9502 81.232C50.5422 80.72 49.2942 80.016 48.2062 79.12C47.1822 78.224 46.3502 77.136 45.7102 75.856C45.1342 74.576 44.8462 73.168 44.8462 71.632V24.4C44.8462 22.032 45.1342 20.08 45.7102 18.544C46.3502 16.944 47.1822 15.696 48.2062 14.8C49.2942 13.904 50.5422 13.264 51.9502 12.88C53.3582 12.496 54.8942 12.304 56.5582 12.304H57.7102V82ZM79.5982 69.328C79.5982 73.744 78.5743 76.976 76.5263 79.024C74.4783 81.008 71.5343 82 67.6943 82C65.2622 82 63.1822 81.328 61.4542 79.984C59.7263 78.64 58.8623 76.944 58.8623 74.896C58.8623 73.808 59.0863 72.816 59.5343 71.92C60.3663 72.624 61.3583 72.976 62.5103 72.976C63.7903 72.976 64.8142 72.464 65.5822 71.44C66.3502 70.416 66.7342 68.848 66.7342 66.736V47.44C66.7342 46.032 66.4462 44.848 65.8702 43.888C65.3582 42.928 64.3663 42.384 62.8942 42.256H62.5103C61.3583 42.256 60.3342 42.608 59.4383 43.312C59.1822 42.8 59.0222 42.32 58.9582 41.872C58.8942 41.36 58.8623 40.848 58.8623 40.336C58.8623 38.288 59.7263 36.592 61.4542 35.248C63.1822 33.904 65.2622 33.232 67.6943 33.232C71.5343 33.232 74.4783 34.224 76.5263 36.208C78.5743 38.192 79.5982 40.72 79.5982 43.792V69.328Z"/>
</mask>
<path d="M26.208 12.304H27.36C28.96 12.304 30.464 12.496 31.872 12.88C33.344 13.264 34.592 13.904 35.616 14.8C36.704 15.696 37.536 16.944 38.112 18.544C38.752 20.08 39.072 22.032 39.072 24.4V71.632C39.072 73.168 38.752 74.576 38.112 75.856C37.536 77.136 36.704 78.224 35.616 79.12C34.592 80.016 33.344 80.72 31.872 81.232C30.464 81.744 28.928 82 27.264 82H26.208V12.304ZM4.32 43.792C4.32 40.72 5.344 38.192 7.392 36.208C9.44 34.224 12.384 33.232 16.224 33.232C18.656 33.232 20.736 33.904 22.464 35.248C24.192 36.592 25.056 38.288 25.056 40.336C25.056 40.848 25.024 41.36 24.96 41.872C24.896 42.32 24.736 42.8 24.48 43.312C23.584 42.608 22.56 42.256 21.408 42.256H21.024C19.552 42.384 18.528 42.928 17.952 43.888C17.44 44.848 17.184 46.032 17.184 47.44V66.736C17.184 68.848 17.568 70.416 18.336 71.44C19.104 72.464 20.128 72.976 21.408 72.976C22.56 72.976 23.552 72.624 24.384 71.92C24.832 72.816 25.056 73.808 25.056 74.896C25.056 76.944 24.192 78.64 22.464 79.984C20.736 81.328 18.656 82 16.224 82C12.384 82 9.44 81.008 7.392 79.024C5.344 76.976 4.32 73.744 4.32 69.328V43.792ZM57.7102 82H56.6543C54.9902 82 53.4222 81.744 51.9502 81.232C50.5422 80.72 49.2942 80.016 48.2062 79.12C47.1822 78.224 46.3502 77.136 45.7102 75.856C45.1342 74.576 44.8462 73.168 44.8462 71.632V24.4C44.8462 22.032 45.1342 20.08 45.7102 18.544C46.3502 16.944 47.1822 15.696 48.2062 14.8C49.2942 13.904 50.5422 13.264 51.9502 12.88C53.3582 12.496 54.8942 12.304 56.5582 12.304H57.7102V82ZM79.5982 69.328C79.5982 73.744 78.5743 76.976 76.5263 79.024C74.4783 81.008 71.5343 82 67.6943 82C65.2622 82 63.1822 81.328 61.4542 79.984C59.7263 78.64 58.8623 76.944 58.8623 74.896C58.8623 73.808 59.0863 72.816 59.5343 71.92C60.3663 72.624 61.3583 72.976 62.5103 72.976C63.7903 72.976 64.8142 72.464 65.5822 71.44C66.3502 70.416 66.7342 68.848 66.7342 66.736V47.44C66.7342 46.032 66.4462 44.848 65.8702 43.888C65.3582 42.928 64.3663 42.384 62.8942 42.256H62.5103C61.3583 42.256 60.3342 42.608 59.4383 43.312C59.1822 42.8 59.0222 42.32 58.9582 41.872C58.8942 41.36 58.8623 40.848 58.8623 40.336C58.8623 38.288 59.7263 36.592 61.4542 35.248C63.1822 33.904 65.2622 33.232 67.6943 33.232C71.5343 33.232 74.4783 34.224 76.5263 36.208C78.5743 38.192 79.5982 40.72 79.5982 43.792V69.328Z" fill="#F2F2F2"/>
<path d="M26.208 12.304V11.304H25.208V12.304H26.208ZM31.872 12.88L31.6089 13.8448L31.6196 13.8476L31.872 12.88ZM35.616 14.8L34.9575 15.5526L34.9688 15.5624L34.9803 15.5719L35.616 14.8ZM38.112 18.544L37.1711 18.8827L37.1795 18.9059L37.1889 18.9286L38.112 18.544ZM38.112 75.856L37.2176 75.4088L37.2085 75.427L37.2001 75.4456L38.112 75.856ZM35.616 79.12L34.9803 78.3481L34.9688 78.3576L34.9575 78.3674L35.616 79.12ZM31.872 81.232L31.5434 80.2874L31.5303 80.2922L31.872 81.232ZM26.208 82H25.208V83H26.208V82ZM7.392 36.208L6.69621 35.4898L6.69621 35.4898L7.392 36.208ZM24.96 41.872L25.95 42.0134L25.9512 42.0047L25.9523 41.996L24.96 41.872ZM24.48 43.312L23.8622 44.0983L24.8262 44.8557L25.3744 43.7592L24.48 43.312ZM21.024 42.256V41.256H20.9806L20.9374 41.2598L21.024 42.256ZM17.952 43.888L17.0945 43.3735L17.0815 43.3951L17.0696 43.4174L17.952 43.888ZM18.336 71.44L19.136 70.84L19.136 70.84L18.336 71.44ZM24.384 71.92L25.2784 71.4728L24.7094 70.3347L23.7381 71.1566L24.384 71.92ZM7.392 79.024L6.68489 79.7311L6.69051 79.7367L6.69621 79.7422L7.392 79.024ZM26.208 13.304H27.36V11.304H26.208V13.304ZM27.36 13.304C28.8796 13.304 30.2944 13.4863 31.6089 13.8448L32.1351 11.9152C30.6336 11.5057 29.0404 11.304 27.36 11.304V13.304ZM31.6196 13.8476C32.9593 14.1971 34.0635 14.7703 34.9575 15.5526L36.2745 14.0474C35.1205 13.0377 33.7287 12.3309 32.1244 11.9124L31.6196 13.8476ZM34.9803 15.5719C35.9033 16.3321 36.6434 17.4169 37.1711 18.8827L39.0529 18.2053C38.4286 16.4711 37.5047 15.0599 36.2517 14.0281L34.9803 15.5719ZM37.1889 18.9286C37.7615 20.3028 38.072 22.1124 38.072 24.4H40.072C40.072 21.9516 39.7425 19.8572 39.0351 18.1594L37.1889 18.9286ZM38.072 24.4V71.632H40.072V24.4H38.072ZM38.072 71.632C38.072 73.0244 37.7831 74.2777 37.2176 75.4088L39.0064 76.3032C39.7209 74.8743 40.072 73.3116 40.072 71.632H38.072ZM37.2001 75.4456C36.6874 76.5849 35.9502 77.5493 34.9803 78.3481L36.2517 79.8919C37.4578 78.8987 38.3846 77.6871 39.0239 76.2664L37.2001 75.4456ZM34.9575 78.3674C34.0432 79.1675 32.9117 79.8116 31.5435 80.2875L32.2005 82.1765C33.7763 81.6284 35.1408 80.8645 36.2745 79.8726L34.9575 78.3674ZM31.5303 80.2922C30.2432 80.7602 28.8243 81 27.264 81V83C29.0317 83 30.6848 82.7278 32.2137 82.1718L31.5303 80.2922ZM27.264 81H26.208V83H27.264V81ZM27.208 82V12.304H25.208V82H27.208ZM5.32 43.792C5.32 40.9675 6.25033 38.7063 8.0878 36.9262L6.69621 35.4898C4.43767 37.6777 3.32 40.4725 3.32 43.792H5.32ZM8.0878 36.9262C9.89211 35.1783 12.5515 34.232 16.224 34.232V32.232C12.2165 32.232 8.9879 33.2697 6.69621 35.4898L8.0878 36.9262ZM16.224 34.232C18.4597 34.232 20.3171 34.8451 21.8501 36.0374L23.0779 34.4586C21.1549 32.9629 18.8523 32.232 16.224 32.232V34.232ZM21.8501 36.0374C23.3539 37.207 24.056 38.6204 24.056 40.336H26.056C26.056 37.9556 25.0301 35.977 23.0779 34.4586L21.8501 36.0374ZM24.056 40.336C24.056 40.8062 24.0266 41.2768 23.9677 41.748L25.9523 41.996C26.0214 41.4432 26.056 40.8898 26.056 40.336H24.056ZM23.9701 41.7306C23.9247 42.0483 23.8056 42.4247 23.5856 42.8648L25.3744 43.7592C25.6664 43.1753 25.8673 42.5917 25.95 42.0134L23.9701 41.7306ZM25.0978 42.5257C24.0235 41.6816 22.7814 41.256 21.408 41.256V43.256C22.3386 43.256 23.1445 43.5344 23.8622 44.0983L25.0978 42.5257ZM21.408 41.256H21.024V43.256H21.408V41.256ZM20.9374 41.2598C19.2579 41.4058 17.8857 42.0548 17.0945 43.3735L18.8095 44.4025C19.1703 43.8012 19.8461 43.3622 21.1106 43.2522L20.9374 41.2598ZM17.0696 43.4174C16.461 44.5586 16.184 45.9147 16.184 47.44H18.184C18.184 46.1493 18.419 45.1374 18.8344 44.3586L17.0696 43.4174ZM16.184 47.44V66.736H18.184V47.44H16.184ZM16.184 66.736C16.184 68.9358 16.5779 70.7625 17.536 72.04L19.136 70.84C18.5581 70.0695 18.184 68.7602 18.184 66.736H16.184ZM17.536 72.04C18.4929 73.3158 19.8132 73.976 21.408 73.976V71.976C20.4428 71.976 19.7151 71.6122 19.136 70.84L17.536 72.04ZM21.408 73.976C22.7819 73.976 24.0065 73.5493 25.0299 72.6834L23.7381 71.1566C23.0975 71.6987 22.3381 71.976 21.408 71.976V73.976ZM23.4896 72.3672C23.8623 73.1127 24.056 73.9496 24.056 74.896H26.056C26.056 73.6664 25.8017 72.5193 25.2784 71.4728L23.4896 72.3672ZM24.056 74.896C24.056 76.6116 23.3539 78.025 21.8501 79.1946L23.0779 80.7734C25.0301 79.255 26.056 77.2764 26.056 74.896H24.056ZM21.8501 79.1946C20.3171 80.3869 18.4597 81 16.224 81V83C18.8523 83 21.1549 82.2691 23.0779 80.7734L21.8501 79.1946ZM16.224 81C12.5515 81 9.89211 80.0537 8.0878 78.3058L6.69621 79.7422C8.9879 81.9623 12.2165 83 16.224 83V81ZM8.09911 78.3169C6.31709 76.5349 5.32 73.6154 5.32 69.328H3.32C3.32 73.8726 4.37091 77.4171 6.68489 79.7311L8.09911 78.3169ZM5.32 69.328V43.792H3.32V69.328H5.32ZM57.7102 82V83H58.7102V82H57.7102ZM51.9502 81.232L51.6085 82.1719L51.6217 82.1765L51.9502 81.232ZM48.2062 79.12L47.5477 79.8726L47.559 79.8824L47.5705 79.8919L48.2062 79.12ZM45.7102 75.856L44.7983 76.2664L44.8067 76.285L44.8158 76.3032L45.7102 75.856ZM45.7102 18.544L44.7818 18.1726L44.7777 18.1827L44.7739 18.1929L45.7102 18.544ZM48.2062 14.8L47.5705 14.0281L47.559 14.0376L47.5477 14.0474L48.2062 14.8ZM57.7102 12.304H58.7102V11.304H57.7102V12.304ZM76.5263 79.024L77.222 79.7422L77.2277 79.7367L77.2334 79.7311L76.5263 79.024ZM59.5343 71.92L60.1802 71.1566L59.2089 70.3347L58.6398 71.4728L59.5343 71.92ZM65.5822 71.44L64.7822 70.84L64.7822 70.84L65.5822 71.44ZM65.8702 43.888L64.9879 44.3586L64.9998 44.3809L65.0128 44.4025L65.8702 43.888ZM62.8942 42.256L62.9809 41.2598L62.9376 41.256H62.8942V42.256ZM59.4383 43.312L58.5438 43.7592L59.0921 44.8557L60.0561 44.0983L59.4383 43.312ZM58.9582 41.872L57.966 41.996L57.9671 42.0047L57.9683 42.0134L58.9582 41.872ZM76.5263 36.208L77.222 35.4898L77.222 35.4898L76.5263 36.208ZM57.7102 81H56.6543V83H57.7102V81ZM56.6543 81C55.0945 81 53.6382 80.7603 52.2788 80.2875L51.6217 82.1765C53.2063 82.7277 54.886 83 56.6543 83V81ZM52.292 80.2922C50.984 79.8166 49.8368 79.1674 48.842 78.3481L47.5705 79.8919C48.7517 80.8646 50.1005 81.6234 51.6085 82.1718L52.292 80.2922ZM48.8648 78.3674C47.9435 77.5613 47.1897 76.5788 46.6047 75.4088L44.8158 76.3032C45.5108 77.6932 46.421 78.8867 47.5477 79.8726L48.8648 78.3674ZM46.6222 75.4456C46.1095 74.3064 45.8462 73.04 45.8462 71.632H43.8462C43.8462 73.296 44.159 74.8456 44.7983 76.2664L46.6222 75.4456ZM45.8462 71.632V24.4H43.8462V71.632H45.8462ZM45.8462 24.4C45.8462 22.1033 46.1269 20.2809 46.6466 18.8951L44.7739 18.1929C44.1416 19.8791 43.8462 21.9607 43.8462 24.4H45.8462ZM46.6387 18.9154C47.2353 17.4239 47.987 16.3206 48.8648 15.5526L47.5477 14.0474C46.3775 15.0714 45.4652 16.4641 44.7818 18.1726L46.6387 18.9154ZM48.842 15.5719C49.8169 14.769 50.9368 14.1929 52.2134 13.8448L51.6871 11.9152C50.1477 12.3351 48.7716 13.039 47.5705 14.0281L48.842 15.5719ZM52.2134 13.8448C53.5246 13.4872 54.9709 13.304 56.5582 13.304V11.304C54.8176 11.304 53.1919 11.5048 51.6871 11.9152L52.2134 13.8448ZM56.5582 13.304H57.7102V11.304H56.5582V13.304ZM56.7102 12.304V82H58.7102V12.304H56.7102ZM78.5982 69.328C78.5982 73.6154 77.6012 76.5349 75.8191 78.3169L77.2334 79.7311C79.5473 77.4171 80.5982 73.8726 80.5982 69.328H78.5982ZM75.8305 78.3058C74.0261 80.0537 71.3668 81 67.6943 81V83C71.7017 83 74.9304 81.9623 77.222 79.7422L75.8305 78.3058ZM67.6943 81C65.4585 81 63.6011 80.3869 62.0682 79.1946L60.8403 80.7734C62.7634 82.2691 65.066 83 67.6943 83V81ZM62.0682 79.1946C60.5644 78.025 59.8623 76.6116 59.8623 74.896H57.8623C57.8623 77.2764 58.8881 79.255 60.8403 80.7734L62.0682 79.1946ZM59.8623 74.896C59.8623 73.9496 60.056 73.1127 60.4287 72.3672L58.6398 71.4728C58.1166 72.5193 57.8623 73.6664 57.8623 74.896H59.8623ZM58.8883 72.6834C59.9117 73.5493 61.1363 73.976 62.5103 73.976V71.976C61.5802 71.976 60.8208 71.6987 60.1802 71.1566L58.8883 72.6834ZM62.5103 73.976C64.105 73.976 65.4254 73.3158 66.3822 72.04L64.7822 70.84C64.2031 71.6122 63.4755 71.976 62.5103 71.976V73.976ZM66.3822 72.04C67.3404 70.7625 67.7342 68.9358 67.7342 66.736H65.7342C65.7342 68.7602 65.3601 70.0695 64.7822 70.84L66.3822 72.04ZM67.7342 66.736V47.44H65.7342V66.736H67.7342ZM67.7342 47.44C67.7342 45.897 67.4182 44.5243 66.7277 43.3735L65.0128 44.4025C65.4743 45.1717 65.7342 46.167 65.7342 47.44H67.7342ZM66.7526 43.4174C66.0272 42.0573 64.6565 41.4055 62.9809 41.2598L62.8076 43.2522C64.076 43.3625 64.6893 43.7987 64.9879 44.3586L66.7526 43.4174ZM62.8942 41.256H62.5103V43.256H62.8942V41.256ZM62.5103 41.256C61.1369 41.256 59.8947 41.6816 58.8204 42.5257L60.0561 44.0983C60.7738 43.5344 61.5796 43.256 62.5103 43.256V41.256ZM60.3327 42.8648C60.1126 42.4247 59.9936 42.0483 59.9482 41.7306L57.9683 42.0134C58.0509 42.5917 58.2519 43.1753 58.5438 43.7592L60.3327 42.8648ZM59.9505 41.748C59.8916 41.2768 59.8623 40.8062 59.8623 40.336H57.8623C57.8623 40.8898 57.8969 41.4432 57.966 41.996L59.9505 41.748ZM59.8623 40.336C59.8623 38.6204 60.5644 37.207 62.0682 36.0374L60.8403 34.4586C58.8881 35.977 57.8623 37.9556 57.8623 40.336H59.8623ZM62.0682 36.0374C63.6011 34.8451 65.4585 34.232 67.6943 34.232V32.232C65.066 32.232 62.7634 32.9629 60.8403 34.4586L62.0682 36.0374ZM67.6943 34.232C71.3668 34.232 74.0261 35.1783 75.8305 36.9262L77.222 35.4898C74.9304 33.2697 71.7017 32.232 67.6943 32.232V34.232ZM75.8305 36.9262C77.6679 38.7063 78.5982 40.9675 78.5982 43.792H80.5982C80.5982 40.4725 79.4806 37.6777 77.222 35.4898L75.8305 36.9262ZM78.5982 43.792V69.328H80.5982V43.792H78.5982Z" fill="#28BABA" mask="url(#path-1-outside-1_14_7)"/>
</svg>
