<svg width="81" height="76" viewBox="0 0 81 76" fill="none" xmlns="http://www.w3.org/2000/svg">
<g filter="url(#filter0_d_10_50)">
<path d="M1.5635 33.776C2.0755 32.176 4.0595 29.68 7.5155 26.288C11.0355 22.832 13.6275 21.104 15.2915 21.104C16.9555 21.104 19.8035 22.832 23.8355 26.288V21.584C23.8355 18.32 23.4515 15.824 22.6835 14.096C21.9155 12.368 20.6995 10.8 19.0355 9.392L29.5955 1.99999C34.2035 5.648 36.5075 10.8 36.5075 17.456V74H26.7155L25.5635 68.336C20.8915 72.88 17.4035 75.152 15.0995 75.152C13.5635 75.152 11.0355 73.456 7.5155 70.064C4.0595 66.608 2.0755 64.08 1.5635 62.48C0.859499 60.88 0.507499 56.112 0.507499 48.176C0.507499 40.176 0.859499 35.376 1.5635 33.776ZM23.1635 36.944C22.7155 36.112 21.7875 35.28 20.3795 34.448C19.0355 33.552 18.0115 33.104 17.3075 33.104C16.6035 33.104 15.8355 33.52 15.0035 34.352C14.2355 35.184 13.6595 36.048 13.2755 36.944C12.8915 37.84 12.6995 41.584 12.6995 48.176C12.6995 54.704 12.8915 58.416 13.2755 59.312C13.6595 60.144 14.2355 61.008 15.0035 61.904C15.8355 62.736 16.5715 63.152 17.2115 63.152C17.9155 63.152 18.9395 62.736 20.2835 61.904C21.6915 61.008 22.6195 60.24 23.0675 59.6C23.4515 58.704 23.7075 56.112 23.8355 51.824V48.272C23.8355 41.488 23.6115 37.712 23.1635 36.944ZM42.7062 74V21.584C42.7062 18.32 42.3222 15.824 41.5542 14.096C40.7862 12.368 39.5702 10.8 37.9062 9.392L48.4662 1.99999C53.0742 5.648 55.3782 10.8 55.3782 17.456V26.192C59.2182 22.8 61.9702 21.104 63.6342 21.104C65.3622 21.104 67.9542 22.832 71.4102 26.288C74.9303 29.68 76.9462 32.176 77.4582 33.776C78.1622 35.376 78.5142 40.176 78.5142 48.176C78.5142 56.112 78.1622 60.88 77.4582 62.48C76.9462 64.08 74.9303 66.608 71.4102 70.064C67.9542 73.456 65.4582 75.152 63.9222 75.152C61.6822 75.152 58.0982 72.816 53.1702 68.144L52.1142 74H42.7062ZM55.8582 59.408C56.3062 60.176 57.2022 61.008 58.5462 61.904C59.9542 62.736 61.0102 63.152 61.7142 63.152C62.4182 63.152 63.1542 62.736 63.9222 61.904C64.7542 61.072 65.3622 60.208 65.7462 59.312C66.1302 58.416 66.3222 54.704 66.3222 48.176C66.3222 41.584 66.1302 37.872 65.7462 37.04C65.3622 36.144 64.7542 35.28 63.9222 34.448C63.1542 33.552 62.4182 33.104 61.7142 33.104C61.0742 33.104 60.0502 33.552 58.6422 34.448C57.2982 35.28 56.4022 36.016 55.9542 36.656C55.4422 37.744 55.1862 41.616 55.1862 48.272C55.1862 54.864 55.4102 58.576 55.8582 59.408Z" fill="#F8FAFC"/>
</g>
<defs>
<filter id="filter0_d_10_50" x="0.507446" y="0" width="80.0068" height="75.152" filterUnits="userSpaceOnUse" color-interpolation-filters="sRGB">
<feFlood flood-opacity="0" result="BackgroundImageFix"/>
<feColorMatrix in="SourceAlpha" type="matrix" values="0 0 0 0 0 0 0 0 0 0 0 0 0 0 0 0 0 0 127 0" result="hardAlpha"/>
<feOffset dx="2" dy="-2"/>
<feComposite in2="hardAlpha" operator="out"/>
<feColorMatrix type="matrix" values="0 0 0 0 0.129412 0 0 0 0 0.129412 0 0 0 0 0.129412 0 0 0 1 0"/>
<feBlend mode="normal" in2="BackgroundImageFix" result="effect1_dropShadow_10_50"/>
<feBlend mode="normal" in="SourceGraphic" in2="effect1_dropShadow_10_50" result="shape"/>
</filter>
</defs>
</svg>
