<svg xmlns="http://www.w3.org/2000/svg" xmlns:xlink="http://www.w3.org/1999/xlink" width="314" height="75" viewBox="0 0 314 75"><defs><clipPath id="b"><rect width="314" height="75"/></clipPath></defs><g id="a" clip-path="url(#b)"><path d="M22314.277,9788.133c-14.154-1-50.219-5.249-36.029-5.027,6.813.1,10.611,1.02,17.42,1.3,4.783.192,7.488.017,12.277.2,6.809.261,10.611,1,17.42,1.219,4.059.129,7.609.093,10.947-.04a1.178,1.178,0,0,0,.391-.374,3.147,3.147,0,0,0,.646-1.973v-.448l-.068-.465v-.641a4.458,4.458,0,0,0-.906-2.312c-.238-.453-.426-.691-.641-1.162-.137-.3-.182-.532-.459-.708a4.145,4.145,0,0,0-2.518-.6c-.566,0-.846.3-1.412.369a9.01,9.01,0,0,0-1.57.346,3.108,3.108,0,0,1-1,.255h-.561c-.182,0-.227-.187-.379-.278a4.168,4.168,0,0,0-.834-.419,2.559,2.559,0,0,0-.691-.068c-.432,0-.68.091-1.111.091s-.709.022-1.129.022a1,1,0,0,1-.531.63c-.346.158-.783.187-.783.572,0,.227.158.329.158.556,0,.277-.283.34-.414.578a.691.691,0,0,1,.369.646c0,.94-1,1.314-1.937,1.451-.822.124-1.219.578-2.053.578a1.2,1.2,0,0,1-.947-.414,2.041,2.041,0,0,1-1.117-1.661c-.084-.437-.051-.7-.158-1.134-.062-.271-.09-.6-.369-.6-.242,0-.355.182-.6.182-1.316,0-.879-2.562-2.193-2.562-.67,0-.965.556-1.639.556-.352,0-.551-.113-.9-.113a1.086,1.086,0,0,0-.531.136,4.173,4.173,0,0,0-.047,1c0,.158.369.385.369.544,0,.414-.426.5-.578.884-.182.46-.023.958-.3,1.366-.209.307-.578.023-.617.023-.187,0-.387.057-.533-.046-.119-.085-.256-.147-.256-.3,0-.25.211-.341.324-.556.289-.517.668-.658,1.014-1.134.107-.147.324-.176.324-.363,0-.21-.143-.306-.187-.51-.062-.272-.039-.652-.318-.652-.408,0-.605.25-1.02.283l-.551.137v.182c0,.289.426.209.715.209a3.335,3.335,0,0,1,.068.527,1.191,1.191,0,0,1-.9,1.156c-.311.108-.561.272-.6.606-.035.289.063.709-.227.709-.5,0-.471-.851-.971-.851a.3.3,0,0,0-.322.278c0,.306.623.176.623.481a.239.239,0,0,1-.209.255c-.357,0-.521-.277-.879-.277a1.3,1.3,0,0,0-.465.091,2.156,2.156,0,0,1-.736.091c-.437,0-.67-.159-1.111-.159a.379.379,0,0,0-.295.113c-.328.216-.328.255-.715.255-.787,0-1.156-.872-1.156-1.66,0-1.746,1.367-2.522,1.367-4.269a.351.351,0,0,0-.375-.323.932.932,0,0,0-.828,1.021c0,.391.3.566.3.964,0,.346-.34.5-.674.578-.17.039-.393.033-.393.209,0,.057.029.085.047.137v.209a3.445,3.445,0,0,0-.414,0c-.346,0-.283-.623-.629-.623h-.449c-.146,0-.232.045-.379.045-.119,0-.271-.17-.324-.277.023-.307.324-.414.324-.72,0-.131-.193-.113-.324-.113-.3,0-.367.334-.51.6-.2.368-.385.714-.811.714h-.447c-.289,0-.42-.147-.68-.255-.572-.232-1.152-.481-1.152-1.111a.9.9,0,0,1,.023-.322,1.337,1.337,0,0,0,.256-.788.37.37,0,0,0-.352-.386c-.789,0-1.191.465-1.984.465-.352,0-.312-.471-.527-.742-.312-.38-.652-.607-.652-1.105,0-.307-.119-.573.092-.788.1-.091.232-.119.232-.25,0-.2-.217-.255-.393-.352-.242-.124-.254-.391-.254-.669a.52.52,0,0,1,.09-.271l.277-.119v-.471c0-.277-.186-.408-.186-.686a.857.857,0,0,1,.561-.788c.295-.142.736-.079.736-.414s-.146-.736-.5-.736c-.289,0-.4.277-.686.277h-.482v-.261c0-.34.533-.346.533-.691,0-.743-1.219-.72-1.219-1.469a2.039,2.039,0,0,1,.021-.237,1.516,1.516,0,0,0,0-.488c0-1.474-1.338-1.938-1.455-3.418a2.636,2.636,0,0,1,.2-.776c.107-.222.2-.216.289-.21a.258.258,0,0,0,.221-.068c.3-.3.164-.821.164-1.252,0-.414.137-.6.137-1.021,0-.9.771-1.338,1.615-1.633.742-.261,1.662-.357,1.662-1.146,0-.93-.941-1.264-.941-2.2v-.471c0-.192.078-.289.09-.481,0-.073.188-.277.188-.352,0-.572-1.088-.414-1.088-.986,0-.425.555-.477.623-.9v-.192c0-.7-.855-.885-.855-1.588a.65.65,0,0,1,.4-.691c.277-.079.5.034.736-.142.6-.431.295-1.219.873-1.684.357-.487.873-.425,1.395-.737.324-.2.59-.312.738-.668.123-.295.3-.533.617-.533a.7.7,0,0,1,.555.164c.148.131.125.414.324.414.385,0,.51-.414.895-.414.5,0,.658.556,1.162.556a.329.329,0,0,0,.346-.3c0-.611-.453-.975-1.02-1.2-.307-.125-.686-.159-.686-.487,0-.374.48-.46.48-.828,0-.312-.1-.487-.1-.8,0-.511.328-.749.652-1.14.42-.516.346-1.111.924-1.457a1.617,1.617,0,0,0,0-.238c0-.385-.057-.7.209-.964a4.533,4.533,0,0,1,.709-.459c.318-.237.488-.532.885-.532h.662a1.847,1.847,0,0,0,.766-.232c.217-.091.42-.085.551-.278.346-.5.6-.94,1.207-.992.73-.221.76.42,1.27.42.4,0,.635-.442,1.037-.442.629,0,.629.681,1.254.681.725,0,.328-1.3,1.064-1.627-.051-.216-.2-.317-.2-.527,0-.448.539-.487.691-.907a4.188,4.188,0,0,1,1.7-2.392c.471-.363.26-1.049.736-1.39a1.257,1.257,0,0,1,.828-.181,1.37,1.37,0,0,0,.8-.142c.346-.21.125-.658.369-.97.373-.481.85-.431,1.377-.731.357-.267.492-.612.941-.612.65,0,.736.936,1.389.936.453,0,.68-.283,1.133-.283.754,0,1.088.566,1.838.566a1.54,1.54,0,0,0,.316-.039c.057-.08.158-.153.158-.256,0-.453-.537-.516-.93-.726a1.649,1.649,0,0,1-.855-1.581c0-.5.488-.681.488-1.18a3.4,3.4,0,0,0,.486.04c.125-.3.283-.618.613-.618s.441.369.766.369c.605,0,.436-1.185,1.043-1.185.629,0,.98,0,1.609,0,.855.085.658,1.344,1.514,1.344a.54.54,0,0,0,.486-.566c0-.307-.051-.754-.051-1.061,0-.93.545-.98.9-1.831-.131-.277-.035-.476-.035-.782,0-.646.545-.851.971-1.338.408-.465.537-1.094,1.156-1.094h.793c.516,0,.629.691,1.145.691.852,0,.992-1.179,1.844-1.179.283,0,.436.039.719.039.572,0,1.281.459,1.758.165s-.09-.862.352-1.146a5.393,5.393,0,0,1,1.633-.119c.334,0,.328.2.328.533a1.112,1.112,0,0,1-.125.408.587.587,0,0,0,.25.085c.232,0,.346-.119.578-.119h1c.465,0,.477.731.945.731.223,0,.223-.369.443-.369.521,0,.662.573.811,1.055a8.812,8.812,0,0,1,.771,2.154.714.714,0,0,0,.656.481c.607,0,.727-.635,1.225-.969a2.087,2.087,0,0,1,1.367-.244,5.3,5.3,0,0,1,2.658.851,2.923,2.923,0,0,1,1.014.527c.324.295.471.7.92.7.861,0,1.156-.93,2.018-.93.486,0,.459.811.941.811.3,0,.436-.2.73-.2.68,0,.963.527,1.621.691.205.057.414.2.414.408,0,.641-1.105.59-1.105,1.23v.283l.2.039c.408-.2.531-.657.986-.657a.807.807,0,0,1,.73.861h.436c.506,0,.783-.243,1.287-.243h.953c.742,0,1.4.039,1.768.686a12.7,12.7,0,0,1,.482,1.667,5.755,5.755,0,0,1,1.1-.2,1.565,1.565,0,0,1,1.621,1.015c.018.267.131.362.131.629v.788c0,.368-.408.5-.408.861,0,.227.295.227.488.323.447.244.691.437,1.133.691a2.8,2.8,0,0,1,.658.165c-.029.091-.08.142-.08.243,0,.142.029.232.041.374a2.825,2.825,0,0,1,.686,0c.01.2.045.317.045.521,0,.414-.447.567-.447.981a1.043,1.043,0,0,0,.861,1.025,1.942,1.942,0,0,0,.656,0,1.107,1.107,0,0,1,.926.17c.355.283.707.271,1.094.521.283.187.2.5.328.816.2.5.527.759.527,1.314v.992c0,.59.057,1.117.607,1.395a5.1,5.1,0,0,1,2.691.368c.6.307.879.731,1.553.731v.408c-.033.1-.084.153-.084.261,0,.731,1.5.386,1.5,1.117,0,.323-.408.408-.408.73,0,.2.1.182.17.363.408.527,1.3.477,1.3,1.15,0,.726-1.033.828-1.033,1.56v1.043c.465,0,.953-.04,1.117.408-.232.113-.486.192-.486.447a1.915,1.915,0,0,0,.039.244c.227-.051.346-.2.578-.2a1.608,1.608,0,0,1,.232.04l-.363.5a1.644,1.644,0,0,0,.2.284c.6-.329.42-1.39,1.105-1.39a3.571,3.571,0,0,1,.357.04v.635c0,.408-.357.562-.443.958.25,0,.453-.113.646.04.244.192-.012.578.205.811s.617.068.686.362-.051.5.045.782c.232.681.891.9.891,1.622,0,.374-.67.164-.852.487-.227.4-.1.742-.322,1.14a1.529,1.529,0,0,0-.664-.2,1.469,1.469,0,0,0-.311.039,2.028,2.028,0,0,0,.039.323c.119.244.363.3.363.572,0,.669-.1,1.554-.771,1.554-.221,0-.346-.125-.566-.125s-.346.079-.566.079c-.324,0-.488-.243-.811-.243a.378.378,0,0,0-.369.38v.437h.486l.166-.085h.883c.414,0,.488.487.857.651.662.283,1.252.606,1.3,1.326h1.406c.369,0,.459.465.459.834,0,.437-.447.589-.447,1.021,0,.5.691.572.691,1.065v.641h-.277c-.232,0-.3-.283-.533-.283a.712.712,0,0,0-.771.646c0,.4.811.216.811.612,0,.578-1.139.4-1.139.976,0,.312.334.4.447.686-.068.012-.09.079-.158.079-.357,0-.447-.362-.732-.566l-.164.164c-.346.307-.76.4-.76.867,0,.567.607.851,1.174.851s.641-.851,1.219-.851a1.023,1.023,0,0,1,1.094.93c0,.335-.486.369-.486.7v.448l.2.039c.578-.192.658-.906,1.27-.906.148,0,.244.033.393.045,0,.414.525.527.525.941,0,.476-.889.374-.889.85,0,.539.605.72.605,1.259,0,1.088-1.508.924-2.068,1.865.295.323.855.425.855.867,0,.59.238.912.238,1.5a1.11,1.11,0,0,1-.85,1.094c-.506.143-.953-.057-1.338.329a1.8,1.8,0,0,1-.676.21h-.951c-.459,0-.59-.527-1.043-.527-.572,0-.607.851-1.18.851h-.787c-.59,0-.721-.771-1.311-.771-.182,0-.408.063-.408.244,0,.742.857.964.857,1.706a.874.874,0,0,1-.783.93h-.641c-.664-.477-1.314-.192-1.955.936-.131.414-.346.562-.646.453-.527-.158-.709-.022-.822.113-.137.153-.176.313-.566.006-.277-1-.363-1.14-.691,0-.572.368-.977-.164-1.3-.98-.4-.153-.584-.034-.566.368.459.55.328.834-.408.856a.547.547,0,0,1-.941.243,1.652,1.652,0,0,0-1.174-.776.937.937,0,0,1-.045-1.542q.732-.45,0-1.021a1.206,1.206,0,0,1,.244-1.581c.369-.448-.2-.941-.646-.658l-.658.658c-.975,1.173-1.9-.085-.895-.9.486-.652-.443-1.219-.811-.856v1.015q-.586.23-.527-.526l-.289.2c.033,1.043-.193,1.53-.691,1.468a1.524,1.524,0,0,0-1.379.936q-.814,1.189-1.791.2l-1.8-1.3a1.288,1.288,0,0,1,0-1.8c.318-.708-.129-.98-1.344-.811l-.045.976-.4.2-.125,1.508c-.176.5-1.043.079-1.74.975-.057.788-.656.788-1.791.4a1.644,1.644,0,0,0-1.514-.4c-.572.431-.787.448-1.3.119-.324-.731-.982-.89-2.2-.119a6.73,6.73,0,0,1-3.43,3.844,5.612,5.612,0,0,1,.223,3.679,9.083,9.083,0,0,0-.059,2.441c5.9-.428,11.705-1.029,19.246-1.364,12.646-.567,19.773-1.2,32.432-1.332,4.256-.051,7.59.022,10.924.1,3.293.074,6.592.147,10.809.108,10.816-.119,16.9-.9,27.727-1.021,12.035-.142,18.814.453,30.854.51,5,.023,9-.039,12.92-.1,4.557-.062,9.02-.131,14.846-.068,14.732.153,23.049.392,37.754,1.247,18.424,1.065,30,3,47.129,4.212-26.443-.663-43.309-1.406-71.018-1.729-27.656-.323-43.273-1-70.908.073-5.766.221-9.014.481-14.773.691-13.367.482-23.469.193-33.973-.091-8.213-.221-16.672-.447-27.125-.3-17.254.24-28.514,2.211-43.332,2.211C22322.545,9788.564,22318.6,9788.44,22314.277,9788.133Zm-4.416-12.964c0,.091.051.136.086.215h1.609c.391,0,.617.086,1,.086.447,0,.709-.023,1.156-.04.266-.012.641.011.641-.261,0-.618-.914-.335-1.525-.335h-1c-.424,0-.662.2-1.094.165-.164-.014-.375-.056-.547-.056S22309.861,9774.99,22309.861,9775.169Zm29.014-3.09c-.092.272-.279.374-.545.5a1.2,1.2,0,0,0-.307.232c-.033.028-.09.022-.09.068v1.031c0,.346-.363.4-.572.687-.08.113-.047.221-.047.368,0,.176-.084.447.1.447.135,0,.152-.146.248-.232a.65.65,0,0,1,.488-.136h.328a3.168,3.168,0,0,0,.834-.969,4.26,4.26,0,0,1,.164-.437,2.166,2.166,0,0,0,.51-1.225,1.139,1.139,0,0,0-.408-.952c-.1-.091-.1-.2-.209-.272a.347.347,0,0,0-.045,0C22338.973,9771.187,22338.994,9771.714,22338.875,9772.079Zm-17.535,3.3h.438c.271,0,.322-.322.379-.583l-.072-.153a.513.513,0,0,0-.105-.012C22321.625,9774.637,22321.377,9775.018,22321.34,9775.384Zm-21.443-.521c.084.193.17.38.379.38a.7.7,0,0,0,.279-.085.613.613,0,0,0-.557-.3C22299.965,9774.857,22299.932,9774.859,22299.9,9774.862Zm10.8-2.182c0,.221.164.334.164.555,0,.4-.51.386-.828.6v.249h2.3a1.053,1.053,0,0,0,1.082-1.009v-.76h-.277c-.357.357-.584.669-1.082.669-.461,0-.461-.742-.92-.742A.439.439,0,0,0,22310.7,9772.681Zm22.313.243c-.047.068-.166.046-.166.125,0,.158.154.221.154.374a.941.941,0,0,0,.135.017c.08,0,.1-.1.154-.152.084-.074.248-.04.248-.153,0-.1-.129-.1-.18-.182-.1-.158-.1-.386-.289-.386C22333.041,9772.709,22333.092,9772.816,22333.008,9772.924Zm47.311.159.17.107c.039-.068.191-.04.191-.136a.345.345,0,0,0-.361-.335Zm-55.066-.7c0,.091.039.136.039.227v.34c.193,0,.307.057.5.057.131,0,.3-.017.3-.152,0-.1-.154-.068-.25-.108a.436.436,0,0,1-.3-.4h-.221C22325.3,9772.357,22325.252,9772.357,22325.252,9772.386Zm-25.945-.2c0,.295.215.419.215.708h.635v-.521c-.238.012-.361-.261-.385-.5C22299.563,9771.932,22299.307,9771.966,22299.307,9772.182Zm27.4-.074c-.1.018-.232.023-.232.131s.193.067.221.176a1.413,1.413,0,0,1,.012.385h.1c.16-.073.205-.232.381-.232h.436a.731.731,0,0,0,.5-.124c.012-.046.068-.091.068-.137,0-.237-.307-.221-.527-.317s-.295-.374-.557-.374a2.322,2.322,0,0,1-.4.012C22326.732,9771.818,22326.682,9771.921,22326.709,9772.107Zm2.488-1.5c0,.2.271.176.443.289.373.255.561.442.939.7a2.34,2.34,0,0,0,1.475.527c.34,0,.828.051.828-.289,0-.147-.182-.147-.318-.193a1.1,1.1,0,0,1-.51-.323,4.546,4.546,0,0,0-1.145-.9c-.221-.124-.273-.4-.533-.4s-.34.193-.557.317c-.113.063-.152.153-.277.182a1.177,1.177,0,0,1-.146.006l-.059,0C22329.26,9770.519,22329.2,9770.533,22329.2,9770.611Zm-9.184.827a1.244,1.244,0,0,0,.08.374l.271-.17v-.788c0-.124-.1-.187-.2-.271A4.106,4.106,0,0,0,22320.014,9771.438Zm-14.664-.323c.084.188.164.375.373.375a.668.668,0,0,0,.285-.085.6.6,0,0,0-.543-.3C22305.428,9771.108,22305.389,9771.111,22305.35,9771.115Zm-3.895.04c0,.147.074.323.221.323.205,0,.283-.221.438-.334.2-.147.572-.091.572-.352a.413.413,0,0,0-.375-.448c-.127,0-.211.025-.33.027C22301.92,9770.7,22301.455,9770.8,22301.455,9771.155Zm3.281-1.083h.2c-.436.165-1.031.114-1.031.573a.265.265,0,0,0,.295.232c.4,0,.883-.1.883-.493a1.644,1.644,0,0,0-.072-.341Zm54.229-.7c0,.328-.193.5-.193.839,0,.181.17.261.193.447h.254l.131-.062c-.023-.322.193-.487.193-.8a.53.53,0,0,0-.42-.453C22359.061,9769.336,22359.025,9769.37,22358.965,9769.37Zm-56.982,1,.215-.066h-.209A.373.373,0,0,1,22301.982,9770.366Zm55.633-.645v.356h.373c.148,0,.227-.107.3-.227a.358.358,0,0,1-.193-.289l-.129-.034A.713.713,0,0,0,22357.615,9769.722Zm-46.2-.04c.086.187.166.374.375.374a.615.615,0,0,0,.283-.085.6.6,0,0,0-.541-.3A.989.989,0,0,0,22311.414,9769.682Zm-5.436-.068v.42h.283c.238,0,.5-.119.5-.357,0-.147-.074-.216-.125-.34C22306.375,9769.438,22306.262,9769.613,22305.979,9769.613Zm26.854-1.689c-.273,0-.166.244-.262.5-.068.17-.266.2-.266.392,0,.408.441.476.742.754.176.164.221.334.471.334.158,0,.316-.057.316-.221a.933.933,0,0,0-.7-.976c-.176-.057-.316.012-.492-.073.158-.232.42-.334.42-.624-.008-.077-.035-.094-.086-.094S22332.893,9767.924,22332.832,9767.924Zm42.35,1.344a1.524,1.524,0,0,0,.113.414c.25-.085.527-.182.527-.442,0-.117-.143-.174-.293-.174C22375.361,9769.065,22375.182,9769.136,22375.182,9769.268Zm-30.084-.034v0C22345.107,9769.238,22345.109,9769.238,22345.1,9769.233Zm11.594-.413a.694.694,0,0,0,.578.351c.215,0,.465-.073.465-.289a.434.434,0,0,0-.465-.4C22357.014,9768.479,22356.883,9768.649,22356.691,9768.82Zm-5.453-1.57c-.143.221-.482.2-.482.459s-.039.623.215.623c.324,0,.432-.289.619-.55.117-.164.311-.124.48-.232.119-.073.119-.2.119-.334a.4.4,0,0,0-.441-.357C22351.5,9766.858,22351.379,9767.046,22351.238,9767.25Zm5.164-.153c-.465.091-1.129-.022-1.129.447,0,.091.029.143.033.228h.828c.676,0,1.633.1,1.633-.578,0-.22-.146-.29-.355-.29A6.559,6.559,0,0,0,22356.4,9767.1Zm-46.9-.1c.047.313.42.25.7.386.211.091.285.335.521.335.182,0,.375-.074.375-.25a.526.526,0,0,0-.572-.481C22310.123,9766.983,22309.9,9766.994,22309.5,9766.994Zm35.611-1.769c-.68.295-1.252.692-1.252,1.429a.769.769,0,0,0,.17.521c.635-.346.766-.855,1.246-1.395.273-.306,1-.771.613-.867a.473.473,0,0,0-.107-.013C22345.531,9764.9,22345.363,9765.116,22345.109,9765.226Zm6.531.573a.257.257,0,0,0,.227.271.655.655,0,0,0,.68-.635c0-.111-.08-.157-.193-.157C22352.088,9765.278,22351.641,9765.535,22351.641,9765.8Zm-9.275-.278a.752.752,0,0,0,.086.261c.25-.182.447-.334.447-.635,0-.119-.084-.158-.158-.244C22342.588,9765.135,22342.365,9765.237,22342.365,9765.521Zm14.166-1.031c0,.6.658.912,1.26.912.357,0,.555-.374.555-.726,0-.4-.578-.634-1.082-.634C22356.875,9764.042,22356.531,9764.181,22356.531,9764.489Zm15.447-.137a.686.686,0,0,0,.607.749.376.376,0,0,0,.391-.363.569.569,0,0,0-.527-.612C22372.258,9764.126,22371.979,9764.154,22371.979,9764.353Zm3.76.357.113.335c.289-.028.635-.125.635-.414,0-.113-.041-.182-.041-.295l-.707-.1Zm-25.742-.646a.506.506,0,0,0,.465.545,1.236,1.236,0,0,0,1.139-.981l-.033-.237C22350.9,9763.39,22350,9763.4,22350,9764.063Zm7.607-.861a.745.745,0,0,0,.447.176,1.625,1.625,0,0,0,.295-.04l-.084-.181-.125-.068-.238-.113A.746.746,0,0,0,22357.6,9763.2Zm-10.227.017c.074.058.125.159.232.159h.539c-.025-.187-.275-.31-.486-.31A.284.284,0,0,0,22347.377,9763.219Zm26.336-.407v.385a8.739,8.739,0,0,0,1-.385c-.039-.177-.211-.252-.4-.252A.8.8,0,0,0,22373.713,9762.812Zm-46.2-1.293a2.594,2.594,0,0,0,.039.261l.176.04a.565.565,0,0,0,.408-.5C22327.951,9761.394,22327.514,9761.309,22327.514,9761.519Zm41.619-3.236h.318c.238,0,.363-.153.527-.318l-.318-.209h-.527C22369.117,9757.964,22369.133,9758.078,22369.133,9758.282Zm6.383-.721-.057.335c.211.107.336.277.584.277.211,0,.318-.221.346-.431a3.833,3.833,0,0,0-.789-.185Zm-3.344-.152v.328h.318c.418,0,.475-.481.877-.606v-.459C22372.824,9756.672,22372.688,9757.238,22372.172,9757.409Zm3.066-1.944c0,.1.125.113.17.2.318-.2.691-.323.691-.7a.733.733,0,0,0-.1-.289l-.322-.153C22375.652,9754.926,22375.238,9755.062,22375.238,9755.465Zm-9.1-.6c0,.1.1.17.107.256.432-.086.346-.6.641-.919v-.334l-.209-.04-.375-.04C22366.379,9754.2,22366.135,9754.45,22366.135,9754.863Zm-66.312-3.491c.086.187.17.374.375.374a.752.752,0,0,0,.283-.085.6.6,0,0,0-.543-.3A.939.939,0,0,0,22299.822,9751.372Zm24.273-2.789c-.312.033-.686.113-.686.431,0,.091.033.153.039.249h.369a.549.549,0,0,0,.6-.493c0-.2-.152-.289-.322-.386Zm26.932-.228c0,.216.188.3.205.521h.238c.129,0,.283-.062.283-.192a1.48,1.48,0,0,0-.113-.465,1.215,1.215,0,0,1-.262.012l-.117,0C22351.133,9748.229,22351.027,9748.246,22351.027,9748.355Zm23.684-2.12c.074.159.035.426.217.426a3.249,3.249,0,0,0,.459-.074.72.72,0,0,0-.676-.736Zm-19.744.029a.384.384,0,0,0,.414.346.776.776,0,0,0,.262-.085c-.086-.125-.16-.222-.238-.335l-.271-.113C22355.059,9746.128,22354.967,9746.174,22354.967,9746.265Zm-33.1-2.109c.084.188.164.374.373.374a.647.647,0,0,0,.283-.085.6.6,0,0,0-.541-.3A.934.934,0,0,0,22321.863,9744.155Zm-12.863-.011c0,.17.063.356.232.356.318,0,.7-.119.7-.442,0-.142-.086-.227-.158-.351l-.312-.034A.49.49,0,0,0,22309,9744.145Zm29.879-1.321a2.194,2.194,0,0,0,.047.261l.176.04a.57.57,0,0,0,.408-.5C22339.322,9742.7,22338.879,9742.613,22338.879,9742.823Zm18.525-3.294.283.04a1.429,1.429,0,0,1,.533-.425,2.257,2.257,0,0,0-.084-.283c-.238.011-.488.011-.732,0Zm-13.332-14.245c0,.147.08.312.227.312.2,0,.262-.187.4-.312.154-.142.449-.136.449-.352a.374.374,0,0,0-.166-.271v-.238A.882.882,0,0,0,22344.072,9725.284Zm-11.893-3.729a1.042,1.042,0,0,1,.078.164h.494a1.8,1.8,0,0,0,.787-.249.757.757,0,0,0-.277-.335A1.585,1.585,0,0,0,22332.18,9721.555Z" transform="translate(-22274.004 -9713.951)" stroke="rgba(0,0,0,0)" stroke-miterlimit="10" stroke-width="1"/><path d="M-.4-.682H1.163C1.375-.7,1.6-.7,1.815-.727a2.045,2.045,0,0,0,1.565-1,8.267,8.267,0,0,0,.714-3.712,13.162,13.162,0,0,0-.2-2.246,4.812,4.812,0,0,0-.359-1.138,1.985,1.985,0,0,0-.752-.91,4.454,4.454,0,0,0-2.193-.313H-.4Zm.371-9.7c1.021-.017,2.045-.031,3.069.053A5.113,5.113,0,0,1,6.369-9.024a5.818,5.818,0,0,1,.825,1,5.482,5.482,0,0,1,.779,2.69,5.1,5.1,0,0,1-1.7,3.769C4.919-.413,3.111-.374,1.458-.342H-6.124V-.713h.856a2.786,2.786,0,0,0,.494-.055A1.226,1.226,0,0,0-3.921-1.6a1.853,1.853,0,0,0,.073-.454V-7.443c0-.384,0-.755-.027-1.151a1.414,1.414,0,0,0-.4-1.064,2.013,2.013,0,0,0-1.18-.385h-.654v-.34Z" transform="translate(234.301 36.618)"/><path d="M-.323-.161A8.541,8.541,0,0,0-.79,2.713,11.131,11.131,0,0,0-.478,5.4a4.422,4.422,0,0,0,.342.91,3.45,3.45,0,0,0,.454.827,1.8,1.8,0,0,0,1.565.782A2.426,2.426,0,0,0,2.7,7.775,2.429,2.429,0,0,0,4.13,6.139a8.146,8.146,0,0,0,.458-2.873A11.336,11.336,0,0,0,4.13.077a4.09,4.09,0,0,0-.924-1.69A2.047,2.047,0,0,0,1.769-2.1C.6-2.055.047-1.144-.323-.161M5.4-1.74a5.712,5.712,0,0,1,1.11.638A4.724,4.724,0,0,1,7.859.32a4.7,4.7,0,0,1,.767,2.6,5.3,5.3,0,0,1-1.2,3.4,4.337,4.337,0,0,1-1.02.9,7.783,7.783,0,0,1-4.24,1.051A13.719,13.719,0,0,1,.6,8.2,6.9,6.9,0,0,1-3.31,6.537,4.6,4.6,0,0,1-4.933,2.922,4.9,4.9,0,0,1-3.466-.644,6.962,6.962,0,0,1,1.769-2.452,9.5,9.5,0,0,1,5.4-1.74" transform="translate(251.26 28.343)"/><path d="M-.757-.007h.231V3.821h-.3a6.205,6.205,0,0,0-.353-.586A5.719,5.719,0,0,0-2.319,2.028,7.015,7.015,0,0,0-6.8.28,4.438,4.438,0,0,0-8.892.746a1.356,1.356,0,0,0-.7,1.155.885.885,0,0,0,.226.611c.413.454,1.138.586,2.333.793.657.119,1.306.218,1.968.3a24.15,24.15,0,0,1,2.786.525,5.113,5.113,0,0,1,1.8.8A2.7,2.7,0,0,1,.584,7.181,3.008,3.008,0,0,1-.613,9.7a3.584,3.584,0,0,1-1.178.585,6.754,6.754,0,0,1-2.235.339A7.423,7.423,0,0,1-7.6,9.751a5.851,5.851,0,0,1-1.264-.893l-2,1.58h-.327v-4.2l.313.017c.047.069.1.142.145.211A8.136,8.136,0,0,0-8.338,8.844a7.239,7.239,0,0,0,4.311,1.364A5.493,5.493,0,0,0-2.107,9.9a1.356,1.356,0,0,0,.8-.726,1.15,1.15,0,0,0,.08-.4c0-.585-.52-.924-.993-1.11a18.035,18.035,0,0,0-3.457-.653C-7.186,6.824-9.19,6.7-10.473,5.7A2.533,2.533,0,0,1-11.537,3.55c0-.041.012-.1.012-.139A3.21,3.21,0,0,1-10.259.963,5.394,5.394,0,0,1-6.888-.106,7.727,7.727,0,0,1-5.605.007,6.355,6.355,0,0,1-2.56,1.429Z" transform="translate(275.654 25.996)"/><path d="M-.784-.015-.6,4.227l-.24.059a16.094,16.094,0,0,0-.883-1.663A5.483,5.483,0,0,0-3.488.853a3.557,3.557,0,0,0-1.877-.6A2.011,2.011,0,0,0-6.545.613a1.766,1.766,0,0,0-.371.312A6.908,6.908,0,0,0-7.939,5.082,7.221,7.221,0,0,0-7.1,9.034,1.985,1.985,0,0,0-5.32,10a4.568,4.568,0,0,0,1.39-.257,5.2,5.2,0,0,0,2.818-2.3c.173-.257.313-.527.469-.783l.316.113c-.118.226-.245.442-.372.67A6.462,6.462,0,0,1-2.233,9.261a5.974,5.974,0,0,1-3.716,1.2,6.905,6.905,0,0,1-2.8-.579,5.817,5.817,0,0,1-1.365-.826,5.17,5.17,0,0,1-1.838-3.983,5.275,5.275,0,0,1,.313-1.826A5.224,5.224,0,0,1-9.535.655a6.466,6.466,0,0,1,3.472-.88A4.723,4.723,0,0,1-3.684.328,2.318,2.318,0,0,0-2.618.7a2.649,2.649,0,0,0,.525-.07,2.043,2.043,0,0,0,1.01-.642Z" transform="translate(135.617 43.919)"/><path d="M-.248-.5H3.609L1.659-3.96Zm3.94-7.17L8.63,1.16a2.045,2.045,0,0,0,1.648,1.164h.572V2.71H2.9V2.342h.938a1.359,1.359,0,0,0,.371-.072.657.657,0,0,0,.439-.581A2.1,2.1,0,0,0,4.333.805L3.808-.121H-.4A4.23,4.23,0,0,0-.461.507,1.82,1.82,0,0,0-.136,1.544a2.569,2.569,0,0,0,.187.269,1.156,1.156,0,0,0,.312.257,2.285,2.285,0,0,0,1.368.286V2.71H-3.777V2.356a2.074,2.074,0,0,0,1.44-.585A8.059,8.059,0,0,0-.688-.462L3.323-7.673Z" transform="translate(140.998 51.353)"/><path d="M-.408-.346H.446A4.222,4.222,0,0,0,1.61-.516,1.913,1.913,0,0,0,2.891-2.538a2.817,2.817,0,0,0-.5-1.691,1.591,1.591,0,0,0-.753-.526A2.854,2.854,0,0,0,.8-4.914H-.408ZM3.078-5.281a11.849,11.849,0,0,1,1.409.126,2.648,2.648,0,0,1,1.691.894,2.5,2.5,0,0,1,.583,1.6A2.524,2.524,0,0,1,6.077-.942a3.71,3.71,0,0,1-2.034.909l1.341,2.52c.484.978.766,1.421,1.264,1.681a1.774,1.774,0,0,0,.712.207h.425v.386H2.978L.446-.02H-.408V2.943a3.086,3.086,0,0,0,.028.508,1.016,1.016,0,0,0,.725.826,2.256,2.256,0,0,0,.538.116h.444v.368H-6.2V4.408h.669c.4-.015,1.036-.044,1.32-.4A2.392,2.392,0,0,0-3.92,2.64V-3.531a1.541,1.541,0,0,0-.343-.953,1.725,1.725,0,0,0-1.31-.43h-.644v-.367Z" transform="translate(160.189 49.302)"/><path d="M-.562,0V.34h-1.08a.69.69,0,0,0-.6.34.652.652,0,0,0-.086.3A3.094,3.094,0,0,0-1.954,2l2.6,4.752,1.51-2.731a3.3,3.3,0,0,0,.7-1.835,2.045,2.045,0,0,0-.071-.5A1.981,1.981,0,0,0,1.915.553,3.077,3.077,0,0,0,1.045.34h-.4V0H6.053L6.04.353A2.068,2.068,0,0,0,4.475,1.2,12.118,12.118,0,0,0,2.582,3.939l-3.658,6.617h-.24l-4.054-7.37A6.53,6.53,0,0,0-7.062.712a2,2,0,0,0-.97-.345h-.539V0Z" transform="translate(178.172 44.021)"/><path d="M-.247-.5H3.608L1.661-3.96ZM3.7-7.673,8.631,1.16a2.048,2.048,0,0,0,1.653,1.164h.567V2.71H2.9V2.342H3.84a1.339,1.339,0,0,0,.368-.072.648.648,0,0,0,.44-.581A2.1,2.1,0,0,0,4.334.805L3.809-.121H-.4A4.4,4.4,0,0,0-.46.507,1.773,1.773,0,0,0-.13,1.544a2.057,2.057,0,0,0,.181.269,1.282,1.282,0,0,0,.314.257,2.281,2.281,0,0,0,1.367.286V2.71h-5.5V2.356a2.058,2.058,0,0,0,1.435-.585A8.007,8.007,0,0,0-.687-.462L3.324-7.673Z" transform="translate(187.441 51.353)"/><path d="M-.57-.024h-.9a2.666,2.666,0,0,0-.586.086,1.131,1.131,0,0,0-.824,1.125V9.311H-1.6A4.61,4.61,0,0,0,1.38,8.245,14.519,14.519,0,0,0,3.256,6.466c.145-.173.27-.357.4-.543h.372V9.665H-8.694V9.3h.9a3.139,3.139,0,0,0,.582-.072c.712-.213.739-.8.769-1.409V1.644A1.931,1.931,0,0,0-6.8.29a1.313,1.313,0,0,0-.778-.3H-8.694V-.363H-.57Z" transform="translate(210.025 44.397)"/><path d="M-.757-.007h.229V3.822h-.3c-.112-.2-.225-.4-.352-.584A5.858,5.858,0,0,0-2.323,2.028,7.006,7.006,0,0,0-6.806.279,4.4,4.4,0,0,0-8.894.75a1.342,1.342,0,0,0-.7,1.151.878.878,0,0,0,.229.611c.413.453,1.138.585,2.33.8.652.113,1.311.213,1.962.3a22.809,22.809,0,0,1,2.787.525,5.2,5.2,0,0,1,1.813.8A2.718,2.718,0,0,1,.578,7.181,3.008,3.008,0,0,1-.615,9.7a3.5,3.5,0,0,1-1.183.58,6.683,6.683,0,0,1-2.23.341A7.429,7.429,0,0,1-7.6,9.753a6.25,6.25,0,0,1-1.265-.892l-1.993,1.577h-.327v-4.2l.313.013c.044.069.1.142.145.214A8.163,8.163,0,0,0-8.342,8.844a7.243,7.243,0,0,0,4.313,1.362A5.536,5.536,0,0,0-2.107,9.9a1.337,1.337,0,0,0,.794-.725,1.051,1.051,0,0,0,.084-.4c0-.589-.525-.929-1-1.11a17.867,17.867,0,0,0-3.454-.656c-1.513-.183-3.515-.313-4.8-1.31a2.543,2.543,0,0,1-1.066-2.148c0-.041.015-.1.015-.139A3.208,3.208,0,0,1-10.26.963,5.417,5.417,0,0,1-6.887-.1,8.093,8.093,0,0,1-5.609.006,6.294,6.294,0,0,1-2.565,1.434Z" transform="translate(275.557 43.782)"/><path d="M-.569-.024H-1.581a1.653,1.653,0,0,0-.583.1,1.082,1.082,0,0,0-.668,1.109V8.029a1.414,1.414,0,0,0,.311,1c.17.167.342.226.814.3H-.583v.353h-8.1V9.338H-7.9a1.6,1.6,0,0,0,1.279-.4,1.251,1.251,0,0,0,.229-.81V1.4A2.314,2.314,0,0,0-6.4,1.113a1.1,1.1,0,0,0-.314-.8,1.429,1.429,0,0,0-1-.339h-.94v-.34H-.569Z" transform="translate(261.225 44.385)"/><path d="M-.248-.5H3.609L1.66-3.96Zm3.942-7.17L8.633,1.16a2.041,2.041,0,0,0,1.65,1.164h.567V2.71H2.9V2.342h.937a1.347,1.347,0,0,0,.371-.072.652.652,0,0,0,.442-.581A2.065,2.065,0,0,0,4.334.805L3.808-.121H-.4A4.4,4.4,0,0,0-.461.507,1.812,1.812,0,0,0-.135,1.544l.186.269a1.156,1.156,0,0,0,.313.257,2.289,2.289,0,0,0,1.368.286V2.71H-3.777V2.356a2.074,2.074,0,0,0,1.44-.585A8.022,8.022,0,0,0-.688-.462L3.327-7.673Z" transform="translate(239.305 51.353)"/><path d="M-.536-.023h-.638A3.209,3.209,0,0,0-1.7.1a.948.948,0,0,0-.64.912V4.2H2.1V1.214A1.382,1.382,0,0,0,1.868.449,1.443,1.443,0,0,0,.787-.009h-.5V-.35H7.915V0H6.865A1.348,1.348,0,0,0,5.981.29a1.1,1.1,0,0,0-.327.882V7.829c.013.739.114,1.053.426,1.281a1.146,1.146,0,0,0,.725.229h1.11v.353H.3V9.339H.858a2.885,2.885,0,0,0,.513-.059c.7-.2.725-.811.725-1.405V4.585H-2.341V8.1a2.844,2.844,0,0,0,.069.54,1.1,1.1,0,0,0,1.083.7H-.55v.353H-8.176V9.339h.954c.612-.045.839-.13,1.038-.341a1.237,1.237,0,0,0,.268-.711v-6.6A2.106,2.106,0,0,0-6.184.449,1.526,1.526,0,0,0-7.378-.009h-.8V-.35h7.64Z" transform="translate(225.697 44.37)"/><path d="M-.669-.376c0-3.337-.987-4.99-2.629-4.99-1.3,0-2.685.931-2.685,4.976,0,3.216,1.159,4.984,2.685,4.984,1.911,0,2.629-2.632,2.629-4.97M-.992,4.8a9.064,9.064,0,0,1-2.233.212,11.384,11.384,0,0,1-1.451-.1,6.807,6.807,0,0,1-3.271-1.2A4.962,4.962,0,0,1-9.375,2.3,4.758,4.758,0,0,1-10.2-.392a5.1,5.1,0,0,1,1.78-3.816A7.125,7.125,0,0,1-3.44-5.727a8.83,8.83,0,0,1,4.07.879,4.943,4.943,0,0,1,.883.585,4.549,4.549,0,0,1,.892.881A4.743,4.743,0,0,1,3.445-.333,5.3,5.3,0,0,1,2.366,2.879a4.366,4.366,0,0,1-.826.811A7.354,7.354,0,0,1-.992,4.8" transform="translate(133.242 31.613)"/><path d="M-.455-.145c-1.684,0-2.043-2.066-4.4-2.066A2.073,2.073,0,0,0-6.945-.819s.231-.464,1.211-.464c1.263,0,1.429,2.295,3.93,2.295A2.9,2.9,0,0,0,.785-.971a1.6,1.6,0,0,1-1.24.826" transform="translate(133.906 38.464)"/><path d="M-.891,0V4.423h-.385A7.88,7.88,0,0,0-2.8,1.831,9.625,9.625,0,0,0-3.821.865,2.049,2.049,0,0,0-5.5.326V8.207a2.644,2.644,0,0,0,.1.824c.217.555.77.6,1.269.627h.927v.384h-8.07v-.37h.925a1.8,1.8,0,0,0,.526-.115c.683-.239.725-.855.784-1.463V.326a2.437,2.437,0,0,0-2.093.884,8.03,8.03,0,0,0-2.1,3.241h-.343V0Z" transform="translate(201.297 26.234)"/><path d="M-.248-.5H3.608L1.656-3.96ZM3.69-7.672,8.63,1.163a2.061,2.061,0,0,0,1.648,1.166h.572v.385H2.893V2.342h.942A1.135,1.135,0,0,0,4.2,2.27a.642.642,0,0,0,.444-.581A2.11,2.11,0,0,0,4.333.806L3.808-.118H-.407A4.59,4.59,0,0,0-.461.507,1.818,1.818,0,0,0-.135,1.545a2.834,2.834,0,0,0,.186.27,1.265,1.265,0,0,0,.313.26,2.313,2.313,0,0,0,1.365.28v.359h-5.5V2.355a2.008,2.008,0,0,0,1.433-.584A7.921,7.921,0,0,0-.69-.458L3.322-7.672Z" transform="translate(206.016 33.563)"/><path d="M-.41,0,5.58,5.589V2.7a3.356,3.356,0,0,0-.073-.625A2.4,2.4,0,0,0,4.524.523,1.921,1.921,0,0,0,3.745.34H3.178V0H8.367V.34H7.828C7.7.368,7.559.4,7.416.439a1.569,1.569,0,0,0-.857.6A4.233,4.233,0,0,0,5.937,3.44v6.93H5.606L-3.439,1.917V7a4.079,4.079,0,0,0,.224,1.337,1.778,1.778,0,0,0,1.027,1.2,2.478,2.478,0,0,0,1.034.154v.358h-5.1V9.684H-5.7a2.328,2.328,0,0,0,.729-.2,1.949,1.949,0,0,0,.881-1.051A4.952,4.952,0,0,0-3.81,6.5V1.605c-.216-.173-.444-.341-.657-.513A2.135,2.135,0,0,0-6.242.34V0Z" transform="translate(176.27 26.234)"/><path d="M-.569-.024H-1.584a1.674,1.674,0,0,0-.58.1,1.08,1.08,0,0,0-.671,1.109V8.028a1.414,1.414,0,0,0,.314,1c.17.168.342.227.809.3H-.583v.358h-8.1v-.34H-7.9a1.626,1.626,0,0,0,1.278-.4,1.282,1.282,0,0,0,.226-.81V1.395a1.959,1.959,0,0,0-.013-.281,1.1,1.1,0,0,0-.312-.8,1.438,1.438,0,0,0-1-.34h-.938v-.34H-.569Z" transform="translate(166.201 26.599)"/><path d="M-.554,0V.353h-.839c-.085,0-.172.013-.257.013a1.254,1.254,0,0,0-.866.47,1.377,1.377,0,0,0-.23.907v4.24c-.013.413-.013.839,0,1.269A3.994,3.994,0,0,0-2.6,8.445,2.3,2.3,0,0,0-.359,9.909a3.308,3.308,0,0,0,.742-.1,3.465,3.465,0,0,0,2.422-1.8A4.468,4.468,0,0,0,3.13,6.4V3.112a3.155,3.155,0,0,0-.7-2.106A1.911,1.911,0,0,0,1.78.492,2.055,2.055,0,0,0,.865.353V-.033H5.649V.353H5.362a3.772,3.772,0,0,0-.383.084,1.343,1.343,0,0,0-.8.54A4.132,4.132,0,0,0,3.5,3.011V6.326a7.986,7.986,0,0,1-.158,1.282A3.284,3.284,0,0,1,1.636,9.7a6.928,6.928,0,0,1-3.413.653A5.206,5.206,0,0,1-5.135,9.33,2.9,2.9,0,0,1-6,8.066a5.9,5.9,0,0,1-.255-2.05V1.9a2.57,2.57,0,0,0-.115-.666A1.347,1.347,0,0,0-7.768.366h-.684V0Z" transform="translate(148.586 26.236)"/></g></svg>